<?xml version="1.0" encoding="UTF-8" standalone="no"?>
<!DOCTYPE svg PUBLIC "-//W3C//DTD SVG 1.1//EN"
 "http://www.w3.org/Graphics/SVG/1.1/DTD/svg11.dtd">
<!-- Generated by graphviz version 2.38.0 (20140413.2041)
 -->
<!-- Title: G Pages: 1 -->
<svg width="383pt" height="121pt"
 viewBox="0.00 0.00 383.00 121.00" xmlns="http://www.w3.org/2000/svg" xmlns:xlink="http://www.w3.org/1999/xlink">
<g id="graph0" class="graph" transform="scale(1 1) rotate(0) translate(4 117)">
<title>G</title>
<polygon fill="white" stroke="none" points="-4,4 -4,-117 379,-117 379,4 -4,4"/>
<text text-anchor="middle" x="187.5" y="-7.8" font-family="Times New Roman,serif" font-size="14.00">A_contr1_nfa</text>
<!-- 0 -->
<g id="node1" class="node"><title>0</title>
<ellipse fill="none" stroke="green" cx="18" cy="-70" rx="18" ry="18"/>
<text text-anchor="middle" x="18" y="-66.3" font-family="Times New Roman,serif" font-size="14.00">0</text>
</g>
<!-- 2 -->
<g id="node3" class="node"><title>2</title>
<ellipse fill="none" stroke="blue" cx="97" cy="-95" rx="18" ry="18"/>
<text text-anchor="middle" x="97" y="-91.3" font-family="Times New Roman,serif" font-size="14.00">2</text>
</g>
<!-- 0&#45;&gt;2 -->
<g id="edge1" class="edge"><title>0&#45;&gt;2</title>
<path fill="none" stroke="black" d="M35.3297,-75.3019C45.4364,-78.5832 58.635,-82.8685 70.1398,-86.6038"/>
<polygon fill="black" stroke="black" points="69.1017,-89.9466 79.6938,-89.7058 71.2634,-83.2887 69.1017,-89.9466"/>
<text text-anchor="middle" x="57.5" y="-86.8" font-family="Times New Roman,serif" font-size="14.00">ε</text>
</g>
<!-- 4 -->
<g id="node5" class="node"><title>4</title>
<ellipse fill="none" stroke="blue" cx="97" cy="-41" rx="18" ry="18"/>
<text text-anchor="middle" x="97" y="-37.3" font-family="Times New Roman,serif" font-size="14.00">4</text>
</g>
<!-- 0&#45;&gt;4 -->
<g id="edge2" class="edge"><title>0&#45;&gt;4</title>
<path fill="none" stroke="black" d="M35.3297,-63.8498C45.5046,-60.0177 58.8135,-55.0053 70.3728,-50.6518"/>
<polygon fill="black" stroke="black" points="71.8332,-53.8419 79.9579,-47.0418 69.3659,-47.2911 71.8332,-53.8419"/>
<text text-anchor="middle" x="57.5" y="-59.8" font-family="Times New Roman,serif" font-size="14.00">ε</text>
</g>
<!-- 1 -->
<g id="node2" class="node"><title>1</title>
<ellipse fill="none" stroke="blue" cx="263" cy="-70" rx="18" ry="18"/>
<text text-anchor="middle" x="263" y="-66.3" font-family="Times New Roman,serif" font-size="14.00">1</text>
</g>
<!-- 6 -->
<g id="node7" class="node"><title>6</title>
<ellipse fill="none" stroke="red" cx="353" cy="-70" rx="18" ry="18"/>
<ellipse fill="none" stroke="red" cx="353" cy="-70" rx="22" ry="22"/>
<text text-anchor="middle" x="353" y="-66.3" font-family="Times New Roman,serif" font-size="14.00">6</text>
</g>
<!-- 1&#45;&gt;6 -->
<g id="edge3" class="edge"><title>1&#45;&gt;6</title>
<path fill="none" stroke="black" d="M281.386,-70C292.611,-70 307.537,-70 320.774,-70"/>
<polygon fill="black" stroke="black" points="320.925,-73.5001 330.925,-70 320.925,-66.5001 320.925,-73.5001"/>
<text text-anchor="middle" x="306" y="-73.8" font-family="Times New Roman,serif" font-size="14.00"> e </text>
</g>
<!-- 3 -->
<g id="node4" class="node"><title>3</title>
<ellipse fill="none" stroke="blue" cx="184" cy="-95" rx="18" ry="18"/>
<text text-anchor="middle" x="184" y="-91.3" font-family="Times New Roman,serif" font-size="14.00">3</text>
</g>
<!-- 2&#45;&gt;3 -->
<g id="edge4" class="edge"><title>2&#45;&gt;3</title>
<path fill="none" stroke="black" d="M115.201,-95C126.837,-95 142.452,-95 155.763,-95"/>
<polygon fill="black" stroke="black" points="155.825,-98.5001 165.825,-95 155.825,-91.5001 155.825,-98.5001"/>
<text text-anchor="middle" x="140.5" y="-98.8" font-family="Times New Roman,serif" font-size="14.00"> a </text>
</g>
<!-- 3&#45;&gt;1 -->
<g id="edge5" class="edge"><title>3&#45;&gt;1</title>
<path fill="none" stroke="black" d="M201.33,-89.6981C211.436,-86.4168 224.635,-82.1315 236.14,-78.3962"/>
<polygon fill="black" stroke="black" points="237.263,-81.7113 245.694,-75.2942 235.102,-75.0534 237.263,-81.7113"/>
<text text-anchor="middle" x="223.5" y="-86.8" font-family="Times New Roman,serif" font-size="14.00">ε</text>
</g>
<!-- 5 -->
<g id="node6" class="node"><title>5</title>
<ellipse fill="none" stroke="blue" cx="184" cy="-41" rx="18" ry="18"/>
<text text-anchor="middle" x="184" y="-37.3" font-family="Times New Roman,serif" font-size="14.00">5</text>
</g>
<!-- 4&#45;&gt;5 -->
<g id="edge6" class="edge"><title>4&#45;&gt;5</title>
<path fill="none" stroke="black" d="M115.201,-41C126.837,-41 142.452,-41 155.763,-41"/>
<polygon fill="black" stroke="black" points="155.825,-44.5001 165.825,-41 155.825,-37.5001 155.825,-44.5001"/>
<text text-anchor="middle" x="140.5" y="-44.8" font-family="Times New Roman,serif" font-size="14.00"> c </text>
</g>
<!-- 5&#45;&gt;1 -->
<g id="edge7" class="edge"><title>5&#45;&gt;1</title>
<path fill="none" stroke="black" d="M201.33,-47.1502C211.505,-50.9823 224.814,-55.9947 236.373,-60.3482"/>
<polygon fill="black" stroke="black" points="235.366,-63.7089 245.958,-63.9582 237.833,-57.1581 235.366,-63.7089"/>
<text text-anchor="middle" x="223.5" y="-59.8" font-family="Times New Roman,serif" font-size="14.00">ε</text>
</g>
</g>
</svg>
