<?xml version="1.0" encoding="UTF-8" standalone="no"?>
<!DOCTYPE svg PUBLIC "-//W3C//DTD SVG 1.1//EN"
 "http://www.w3.org/Graphics/SVG/1.1/DTD/svg11.dtd">
<!-- Generated by graphviz version 2.38.0 (20140413.2041)
 -->
<!-- Title: G Pages: 1 -->
<svg width="351pt" height="201pt"
 viewBox="0.00 0.00 350.78 200.99" xmlns="http://www.w3.org/2000/svg" xmlns:xlink="http://www.w3.org/1999/xlink">
<g id="graph0" class="graph" transform="scale(1 1) rotate(0) translate(4 196.994)">
<title>G</title>
<polygon fill="white" stroke="none" points="-4,4 -4,-196.994 346.784,-196.994 346.784,4 -4,4"/>
<text text-anchor="middle" x="171.392" y="-7.8" font-family="Times New Roman,serif" font-size="14.00">A_dfa</text>
<!-- 0 -->
<g id="node1" class="node"><title>0</title>
<ellipse fill="none" stroke="green" cx="27" cy="-106.497" rx="27" ry="18"/>
<text text-anchor="middle" x="27" y="-102.797" font-family="Times New Roman,serif" font-size="14.00">0</text>
</g>
<!-- 10003|20003 -->
<g id="node2" class="node"><title>10003|20003</title>
<ellipse fill="none" stroke="blue" cx="161.895" cy="-106.497" rx="55.7903" ry="18"/>
<text text-anchor="middle" x="161.895" y="-102.797" font-family="Times New Roman,serif" font-size="14.00">10003|20003</text>
</g>
<!-- 0&#45;&gt;10003|20003 -->
<g id="edge1" class="edge"><title>0&#45;&gt;10003|20003</title>
<path fill="none" stroke="black" d="M54.2558,-106.497C66.2406,-106.497 81.0197,-106.497 95.7159,-106.497"/>
<polygon fill="black" stroke="black" points="95.8418,-109.997 105.842,-106.497 95.8417,-102.997 95.8418,-109.997"/>
<text text-anchor="middle" x="80" y="-110.297" font-family="Times New Roman,serif" font-size="14.00"> a </text>
</g>
<!-- 10005 -->
<g id="node3" class="node"><title>10005</title>
<ellipse fill="none" stroke="blue" cx="161.895" cy="-161.497" rx="32.4942" ry="18"/>
<text text-anchor="middle" x="161.895" y="-157.797" font-family="Times New Roman,serif" font-size="14.00">10005</text>
</g>
<!-- 0&#45;&gt;10005 -->
<g id="edge2" class="edge"><title>0&#45;&gt;10005</title>
<path fill="none" stroke="black" d="M49.8911,-116.067C56.9355,-119.115 64.7845,-122.479 72,-125.497 89.5545,-132.841 109.151,-140.802 125.468,-147.366"/>
<polygon fill="black" stroke="black" points="124.573,-150.778 135.157,-151.254 127.18,-144.281 124.573,-150.778"/>
<text text-anchor="middle" x="80" y="-136.297" font-family="Times New Roman,serif" font-size="14.00"> b </text>
</g>
<!-- 20005 -->
<g id="node5" class="node"><title>20005</title>
<ellipse fill="none" stroke="blue" cx="161.895" cy="-49.4971" rx="32.4942" ry="18"/>
<text text-anchor="middle" x="161.895" y="-45.7971" font-family="Times New Roman,serif" font-size="14.00">20005</text>
</g>
<!-- 0&#45;&gt;20005 -->
<g id="edge3" class="edge"><title>0&#45;&gt;20005</title>
<path fill="none" stroke="black" d="M50.3771,-96.8154C57.3059,-93.8227 64.9667,-90.5189 72,-87.4971 89.9185,-79.7986 109.885,-71.26 126.348,-64.23"/>
<polygon fill="black" stroke="black" points="127.772,-67.4279 135.595,-60.283 125.024,-60.9899 127.772,-67.4279"/>
<text text-anchor="middle" x="80" y="-91.2971" font-family="Times New Roman,serif" font-size="14.00"> c </text>
</g>
<!-- 10006 -->
<g id="node4" class="node"><title>10006</title>
<ellipse fill="none" stroke="red" cx="306.287" cy="-156.497" rx="32.4945" ry="32.4945"/>
<ellipse fill="none" stroke="red" cx="306.287" cy="-156.497" rx="36.4942" ry="36.4942"/>
<text text-anchor="middle" x="306.287" y="-152.797" font-family="Times New Roman,serif" font-size="14.00">10006</text>
</g>
<!-- 10003|20003&#45;&gt;10006 -->
<g id="edge4" class="edge"><title>10003|20003&#45;&gt;10006</title>
<path fill="none" stroke="black" d="M200.307,-119.634C219.198,-126.268 242.221,-134.352 261.887,-141.257"/>
<polygon fill="black" stroke="black" points="260.936,-144.633 271.531,-144.644 263.255,-138.028 260.936,-144.633"/>
<text text-anchor="middle" x="243.79" y="-141.297" font-family="Times New Roman,serif" font-size="14.00"> d </text>
</g>
<!-- 20006 -->
<g id="node6" class="node"><title>20006</title>
<ellipse fill="none" stroke="red" cx="306.287" cy="-59.4971" rx="32.4945" ry="32.4945"/>
<ellipse fill="none" stroke="red" cx="306.287" cy="-59.4971" rx="36.4942" ry="36.4942"/>
<text text-anchor="middle" x="306.287" y="-55.7971" font-family="Times New Roman,serif" font-size="14.00">20006</text>
</g>
<!-- 10003|20003&#45;&gt;20006 -->
<g id="edge5" class="edge"><title>10003|20003&#45;&gt;20006</title>
<path fill="none" stroke="black" d="M201.804,-93.6542C220.316,-87.5439 242.523,-80.2141 261.61,-73.9138"/>
<polygon fill="black" stroke="black" points="262.872,-77.183 271.271,-70.7249 260.678,-70.5358 262.872,-77.183"/>
<text text-anchor="middle" x="243.79" y="-86.2971" font-family="Times New Roman,serif" font-size="14.00"> e </text>
</g>
<!-- 10005&#45;&gt;10006 -->
<g id="edge6" class="edge"><title>10005&#45;&gt;10006</title>
<path fill="none" stroke="black" d="M194.496,-160.387C213.648,-159.715 238.405,-158.846 259.657,-158.099"/>
<polygon fill="black" stroke="black" points="259.898,-161.593 269.769,-157.744 259.652,-154.597 259.898,-161.593"/>
<text text-anchor="middle" x="243.79" y="-162.297" font-family="Times New Roman,serif" font-size="14.00"> d </text>
</g>
<!-- 20005&#45;&gt;20006 -->
<g id="edge7" class="edge"><title>20005&#45;&gt;20006</title>
<path fill="none" stroke="black" d="M194.64,-48.0789C211.628,-47.6772 232.888,-47.7457 251.79,-49.4971 254.613,-49.7586 257.508,-50.0962 260.421,-50.4884"/>
<polygon fill="black" stroke="black" points="259.896,-53.9487 270.31,-52.0011 260.954,-47.0291 259.896,-53.9487"/>
<text text-anchor="middle" x="243.79" y="-53.2971" font-family="Times New Roman,serif" font-size="14.00"> e </text>
</g>
</g>
</svg>
