<?xml version="1.0" encoding="UTF-8" standalone="no"?>
<!DOCTYPE svg PUBLIC "-//W3C//DTD SVG 1.1//EN"
 "http://www.w3.org/Graphics/SVG/1.1/DTD/svg11.dtd">
<!-- Generated by graphviz version 2.38.0 (20140413.2041)
 -->
<!-- Title: G Pages: 1 -->
<svg width="610pt" height="345pt"
 viewBox="0.00 0.00 609.97 344.99" xmlns="http://www.w3.org/2000/svg" xmlns:xlink="http://www.w3.org/1999/xlink">
<g id="graph0" class="graph" transform="scale(1 1) rotate(0) translate(4 340.994)">
<title>G</title>
<polygon fill="white" stroke="none" points="-4,4 -4,-340.994 605.971,-340.994 605.971,4 -4,4"/>
<text text-anchor="middle" x="300.986" y="-7.8" font-family="Times New Roman,serif" font-size="14.00">A_nfa</text>
<!-- 0 -->
<g id="node1" class="node"><title>0</title>
<ellipse fill="none" stroke="green" cx="18" cy="-184.497" rx="18" ry="18"/>
<text text-anchor="middle" x="18" y="-180.797" font-family="Times New Roman,serif" font-size="14.00">0</text>
</g>
<!-- 10000 -->
<g id="node2" class="node"><title>10000</title>
<ellipse fill="none" stroke="blue" cx="111.497" cy="-221.497" rx="32.4942" ry="32.4942"/>
<text text-anchor="middle" x="111.497" y="-217.797" font-family="Times New Roman,serif" font-size="14.00">10000</text>
</g>
<!-- 0&#45;&gt;10000 -->
<g id="edge1" class="edge"><title>0&#45;&gt;10000</title>
<path fill="none" stroke="black" d="M34.9376,-190.942C45.056,-195.034 58.6206,-200.519 71.4634,-205.713"/>
<polygon fill="black" stroke="black" points="70.4919,-209.095 81.0748,-209.599 73.1162,-202.605 70.4919,-209.095"/>
<text text-anchor="middle" x="57.5" y="-204.297" font-family="Times New Roman,serif" font-size="14.00">ε</text>
</g>
<!-- 20000 -->
<g id="node9" class="node"><title>20000</title>
<ellipse fill="none" stroke="blue" cx="111.497" cy="-138.497" rx="32.4942" ry="32.4942"/>
<text text-anchor="middle" x="111.497" y="-134.797" font-family="Times New Roman,serif" font-size="14.00">20000</text>
</g>
<!-- 0&#45;&gt;20000 -->
<g id="edge2" class="edge"><title>0&#45;&gt;20000</title>
<path fill="none" stroke="black" d="M34.5212,-176.694C45.0434,-171.404 59.4269,-164.173 72.8494,-157.424"/>
<polygon fill="black" stroke="black" points="74.5668,-160.479 81.9291,-152.86 71.4225,-154.224 74.5668,-160.479"/>
<text text-anchor="middle" x="57.5" y="-170.297" font-family="Times New Roman,serif" font-size="14.00">ε</text>
</g>
<!-- 10002 -->
<g id="node4" class="node"><title>10002</title>
<ellipse fill="none" stroke="blue" cx="219.491" cy="-304.497" rx="32.4942" ry="32.4942"/>
<text text-anchor="middle" x="219.491" y="-300.797" font-family="Times New Roman,serif" font-size="14.00">10002</text>
</g>
<!-- 10000&#45;&gt;10002 -->
<g id="edge3" class="edge"><title>10000&#45;&gt;10002</title>
<path fill="none" stroke="black" d="M137.616,-241.167C151.769,-252.25 169.63,-266.236 184.965,-278.244"/>
<polygon fill="black" stroke="black" points="183.154,-281.271 193.185,-284.681 187.47,-275.76 183.154,-281.271"/>
<text text-anchor="middle" x="165.494" y="-268.297" font-family="Times New Roman,serif" font-size="14.00">ε</text>
</g>
<!-- 10004 -->
<g id="node6" class="node"><title>10004</title>
<ellipse fill="none" stroke="blue" cx="219.491" cy="-221.497" rx="32.4942" ry="32.4942"/>
<text text-anchor="middle" x="219.491" y="-217.797" font-family="Times New Roman,serif" font-size="14.00">10004</text>
</g>
<!-- 10000&#45;&gt;10004 -->
<g id="edge4" class="edge"><title>10000&#45;&gt;10004</title>
<path fill="none" stroke="black" d="M144.012,-221.497C154.278,-221.497 165.839,-221.497 176.736,-221.497"/>
<polygon fill="black" stroke="black" points="176.915,-224.997 186.915,-221.497 176.915,-217.997 176.915,-224.997"/>
<text text-anchor="middle" x="165.494" y="-225.297" font-family="Times New Roman,serif" font-size="14.00">ε</text>
</g>
<!-- 10001 -->
<g id="node3" class="node"><title>10001</title>
<ellipse fill="none" stroke="blue" cx="444.48" cy="-224.497" rx="32.4942" ry="32.4942"/>
<text text-anchor="middle" x="444.48" y="-220.797" font-family="Times New Roman,serif" font-size="14.00">10001</text>
</g>
<!-- 10006 -->
<g id="node8" class="node"><title>10006</title>
<ellipse fill="none" stroke="red" cx="565.474" cy="-224.497" rx="32.4945" ry="32.4945"/>
<ellipse fill="none" stroke="red" cx="565.474" cy="-224.497" rx="36.4942" ry="36.4942"/>
<text text-anchor="middle" x="565.474" y="-220.797" font-family="Times New Roman,serif" font-size="14.00">10006</text>
</g>
<!-- 10001&#45;&gt;10006 -->
<g id="edge5" class="edge"><title>10001&#45;&gt;10006</title>
<path fill="none" stroke="black" d="M477.056,-224.497C489.785,-224.497 504.719,-224.497 518.606,-224.497"/>
<polygon fill="black" stroke="black" points="518.968,-227.997 528.968,-224.497 518.968,-220.997 518.968,-227.997"/>
<text text-anchor="middle" x="502.977" y="-228.297" font-family="Times New Roman,serif" font-size="14.00"> d </text>
</g>
<!-- 10003 -->
<g id="node5" class="node"><title>10003</title>
<ellipse fill="none" stroke="blue" cx="336.486" cy="-304.497" rx="32.4942" ry="32.4942"/>
<text text-anchor="middle" x="336.486" y="-300.797" font-family="Times New Roman,serif" font-size="14.00">10003</text>
</g>
<!-- 10002&#45;&gt;10003 -->
<g id="edge6" class="edge"><title>10002&#45;&gt;10003</title>
<path fill="none" stroke="black" d="M252.218,-304.497C265.039,-304.497 280.014,-304.497 293.702,-304.497"/>
<polygon fill="black" stroke="black" points="293.862,-307.997 303.862,-304.497 293.862,-300.997 293.862,-307.997"/>
<text text-anchor="middle" x="277.988" y="-308.297" font-family="Times New Roman,serif" font-size="14.00"> a </text>
</g>
<!-- 10003&#45;&gt;10001 -->
<g id="edge7" class="edge"><title>10003&#45;&gt;10001</title>
<path fill="none" stroke="black" d="M362.874,-285.335C376.93,-274.726 394.58,-261.405 409.778,-249.933"/>
<polygon fill="black" stroke="black" points="412.058,-252.598 417.931,-243.78 407.841,-247.011 412.058,-252.598"/>
<text text-anchor="middle" x="390.483" y="-270.297" font-family="Times New Roman,serif" font-size="14.00">ε</text>
</g>
<!-- 10005 -->
<g id="node7" class="node"><title>10005</title>
<ellipse fill="none" stroke="blue" cx="336.486" cy="-221.497" rx="32.4942" ry="32.4942"/>
<text text-anchor="middle" x="336.486" y="-217.797" font-family="Times New Roman,serif" font-size="14.00">10005</text>
</g>
<!-- 10004&#45;&gt;10005 -->
<g id="edge8" class="edge"><title>10004&#45;&gt;10005</title>
<path fill="none" stroke="black" d="M252.218,-221.497C265.039,-221.497 280.014,-221.497 293.702,-221.497"/>
<polygon fill="black" stroke="black" points="293.862,-224.997 303.862,-221.497 293.862,-217.997 293.862,-224.997"/>
<text text-anchor="middle" x="277.988" y="-225.297" font-family="Times New Roman,serif" font-size="14.00"> b </text>
</g>
<!-- 10005&#45;&gt;10001 -->
<g id="edge9" class="edge"><title>10005&#45;&gt;10001</title>
<path fill="none" stroke="black" d="M369,-222.389C379.267,-222.68 390.828,-223.007 401.724,-223.315"/>
<polygon fill="black" stroke="black" points="401.808,-226.819 411.903,-223.603 402.006,-219.822 401.808,-226.819"/>
<text text-anchor="middle" x="390.483" y="-226.297" font-family="Times New Roman,serif" font-size="14.00">ε</text>
</g>
<!-- 20002 -->
<g id="node11" class="node"><title>20002</title>
<ellipse fill="none" stroke="blue" cx="219.491" cy="-138.497" rx="32.4942" ry="32.4942"/>
<text text-anchor="middle" x="219.491" y="-134.797" font-family="Times New Roman,serif" font-size="14.00">20002</text>
</g>
<!-- 20000&#45;&gt;20002 -->
<g id="edge10" class="edge"><title>20000&#45;&gt;20002</title>
<path fill="none" stroke="black" d="M144.012,-138.497C154.278,-138.497 165.839,-138.497 176.736,-138.497"/>
<polygon fill="black" stroke="black" points="176.915,-141.997 186.915,-138.497 176.915,-134.997 176.915,-141.997"/>
<text text-anchor="middle" x="165.494" y="-142.297" font-family="Times New Roman,serif" font-size="14.00">ε</text>
</g>
<!-- 20004 -->
<g id="node13" class="node"><title>20004</title>
<ellipse fill="none" stroke="blue" cx="219.491" cy="-55.4971" rx="32.4942" ry="32.4942"/>
<text text-anchor="middle" x="219.491" y="-51.7971" font-family="Times New Roman,serif" font-size="14.00">20004</text>
</g>
<!-- 20000&#45;&gt;20004 -->
<g id="edge11" class="edge"><title>20000&#45;&gt;20004</title>
<path fill="none" stroke="black" d="M137.616,-118.827C151.769,-107.745 169.63,-93.7583 184.965,-81.7501"/>
<polygon fill="black" stroke="black" points="187.47,-84.2344 193.185,-75.3134 183.154,-78.7231 187.47,-84.2344"/>
<text text-anchor="middle" x="165.494" y="-103.297" font-family="Times New Roman,serif" font-size="14.00">ε</text>
</g>
<!-- 20001 -->
<g id="node10" class="node"><title>20001</title>
<ellipse fill="none" stroke="blue" cx="444.48" cy="-105.497" rx="32.4942" ry="32.4942"/>
<text text-anchor="middle" x="444.48" y="-101.797" font-family="Times New Roman,serif" font-size="14.00">20001</text>
</g>
<!-- 20006 -->
<g id="node15" class="node"><title>20006</title>
<ellipse fill="none" stroke="red" cx="565.474" cy="-105.497" rx="32.4945" ry="32.4945"/>
<ellipse fill="none" stroke="red" cx="565.474" cy="-105.497" rx="36.4942" ry="36.4942"/>
<text text-anchor="middle" x="565.474" y="-101.797" font-family="Times New Roman,serif" font-size="14.00">20006</text>
</g>
<!-- 20001&#45;&gt;20006 -->
<g id="edge12" class="edge"><title>20001&#45;&gt;20006</title>
<path fill="none" stroke="black" d="M477.056,-105.497C489.785,-105.497 504.719,-105.497 518.606,-105.497"/>
<polygon fill="black" stroke="black" points="518.968,-108.997 528.968,-105.497 518.968,-101.997 518.968,-108.997"/>
<text text-anchor="middle" x="502.977" y="-109.297" font-family="Times New Roman,serif" font-size="14.00"> e </text>
</g>
<!-- 20003 -->
<g id="node12" class="node"><title>20003</title>
<ellipse fill="none" stroke="blue" cx="336.486" cy="-138.497" rx="32.4942" ry="32.4942"/>
<text text-anchor="middle" x="336.486" y="-134.797" font-family="Times New Roman,serif" font-size="14.00">20003</text>
</g>
<!-- 20002&#45;&gt;20003 -->
<g id="edge13" class="edge"><title>20002&#45;&gt;20003</title>
<path fill="none" stroke="black" d="M252.218,-138.497C265.039,-138.497 280.014,-138.497 293.702,-138.497"/>
<polygon fill="black" stroke="black" points="293.862,-141.997 303.862,-138.497 293.862,-134.997 293.862,-141.997"/>
<text text-anchor="middle" x="277.988" y="-142.297" font-family="Times New Roman,serif" font-size="14.00"> a </text>
</g>
<!-- 20003&#45;&gt;20001 -->
<g id="edge14" class="edge"><title>20003&#45;&gt;20001</title>
<path fill="none" stroke="black" d="M367.859,-129.041C378.947,-125.589 391.661,-121.63 403.461,-117.957"/>
<polygon fill="black" stroke="black" points="404.594,-121.269 413.102,-114.955 402.513,-114.586 404.594,-121.269"/>
<text text-anchor="middle" x="390.483" y="-127.297" font-family="Times New Roman,serif" font-size="14.00">ε</text>
</g>
<!-- 20005 -->
<g id="node14" class="node"><title>20005</title>
<ellipse fill="none" stroke="blue" cx="336.486" cy="-55.4971" rx="32.4942" ry="32.4942"/>
<text text-anchor="middle" x="336.486" y="-51.7971" font-family="Times New Roman,serif" font-size="14.00">20005</text>
</g>
<!-- 20004&#45;&gt;20005 -->
<g id="edge15" class="edge"><title>20004&#45;&gt;20005</title>
<path fill="none" stroke="black" d="M252.218,-55.4971C265.039,-55.4971 280.014,-55.4971 293.702,-55.4971"/>
<polygon fill="black" stroke="black" points="293.862,-58.9972 303.862,-55.4971 293.862,-51.9972 293.862,-58.9972"/>
<text text-anchor="middle" x="277.988" y="-59.2971" font-family="Times New Roman,serif" font-size="14.00"> c </text>
</g>
<!-- 20005&#45;&gt;20001 -->
<g id="edge16" class="edge"><title>20005&#45;&gt;20001</title>
<path fill="none" stroke="black" d="M366.169,-69.0278C378.306,-74.7529 392.614,-81.5025 405.601,-87.6286"/>
<polygon fill="black" stroke="black" points="404.236,-90.8546 414.773,-91.9556 407.222,-84.5237 404.236,-90.8546"/>
<text text-anchor="middle" x="390.483" y="-86.2971" font-family="Times New Roman,serif" font-size="14.00">ε</text>
</g>
</g>
</svg>
